<?xml version="1.0" standalone="no"?>
<!DOCTYPE svg PUBLIC "-//W3C//DTD SVG 20010904//EN"
 "http://www.w3.org/TR/2001/REC-SVG-20010904/DTD/svg10.dtd">
<svg version="1.0" xmlns="http://www.w3.org/2000/svg"
 width="600.000000pt" height="600.000000pt" viewBox="0 0 600.000000 600.000000"
 preserveAspectRatio="xMidYMid meet">

<g transform="translate(0.000000,600.000000) scale(0.100000,-0.100000)"
fill="#000000" stroke="none">
<path d="M1180 4095 l0 -235 25 0 c20 0 25 5 25 27 l0 27 21 -23 c62 -66 160
-45 207 44 10 19 16 55 16 95 0 40 -6 76 -16 95 -47 89 -145 110 -207 44 l-21
-23 0 92 c0 91 0 92 -25 92 l-25 0 0 -235z m207 41 c26 -23 28 -29 28 -106 0
-77 -2 -83 -28 -106 -30 -26 -75 -31 -109 -13 -61 33 -62 202 -1 238 32 18 80
13 110 -13z"/>
<path d="M2130 4295 c0 -31 3 -35 25 -35 22 0 25 4 25 35 0 31 -3 35 -25 35
-22 0 -25 -4 -25 -35z"/>
<path d="M3750 4295 c0 -31 3 -35 25 -35 22 0 25 4 25 35 0 31 -3 35 -25 35
-22 0 -25 -4 -25 -35z"/>
<path d="M482 4311 c-43 -11 -88 -54 -95 -91 -4 -15 -1 -44 4 -64 13 -46 50
-70 139 -90 65 -15 110 -48 110 -81 0 -27 -23 -63 -47 -74 -33 -15 -110 -13
-158 4 -22 8 -41 15 -42 15 -2 0 -3 -11 -3 -24 0 -18 8 -27 31 -35 163 -57
304 20 269 148 -12 47 -47 77 -104 91 -126 31 -146 43 -146 86 0 14 12 36 26
51 23 23 30 25 92 20 37 -3 77 -8 90 -12 19 -6 22 -4 22 18 0 18 -7 27 -23 31
-46 11 -133 15 -165 7z"/>
<path d="M1890 4250 c0 -43 -3 -50 -20 -50 -15 0 -20 -7 -20 -25 0 -18 5 -25
19 -25 18 0 20 -10 23 -120 4 -146 12 -159 107 -167 61 -6 61 -6 61 21 0 25
-3 26 -50 26 -64 0 -70 11 -70 139 l0 101 60 0 c57 0 60 1 60 25 0 24 -3 25
-60 25 l-60 0 0 50 c0 47 -2 50 -25 50 -23 0 -25 -3 -25 -50z"/>
<path d="M2300 4250 c0 -43 -3 -50 -20 -50 -15 0 -20 -7 -20 -25 0 -18 5 -25
19 -25 18 0 20 -10 23 -120 4 -146 12 -159 107 -167 61 -6 61 -6 61 21 0 25
-3 26 -50 26 -64 0 -70 11 -70 139 l0 101 60 0 c57 0 60 1 60 25 0 24 -3 25
-60 25 l-60 0 0 50 c0 47 -2 50 -25 50 -23 0 -25 -3 -25 -50z"/>
<path d="M2930 4250 c0 -43 -3 -50 -20 -50 -15 0 -20 -7 -20 -25 0 -18 5 -25
19 -25 18 0 20 -10 23 -120 4 -146 12 -159 107 -167 61 -6 61 -6 61 21 0 25
-3 26 -50 26 -64 0 -70 11 -70 139 l0 101 60 0 c57 0 60 1 60 25 0 24 -3 25
-60 25 l-60 0 0 50 c0 47 -2 50 -25 50 -23 0 -25 -3 -25 -50z"/>
<path d="M1617 4196 c-48 -18 -66 -41 -67 -87 0 -47 32 -76 106 -96 93 -23
121 -65 69 -99 -26 -17 -118 -16 -157 1 -15 6 -18 2 -18 -18 0 -28 8 -32 81
-42 93 -13 169 31 169 99 0 51 -24 74 -103 97 -85 26 -97 34 -97 65 0 35 33
47 112 42 60 -5 68 -3 68 12 0 21 -14 27 -77 35 -30 3 -63 0 -86 -9z"/>
<path d="M3256 4200 c-66 -21 -106 -85 -106 -172 0 -129 101 -200 235 -166 41
11 51 17 53 37 3 20 1 22 -15 16 -10 -4 -46 -10 -80 -13 -48 -3 -69 0 -89 13
-23 15 -54 69 -54 95 0 6 47 10 131 10 l130 0 -7 48 c-8 60 -26 95 -58 116
-32 20 -101 28 -140 16z m111 -55 c11 -8 26 -28 31 -45 l11 -30 -105 0 c-57 0
-104 2 -104 5 0 15 32 65 47 74 27 15 96 13 120 -4z"/>
<path d="M4045 4203 c-11 -3 -32 -17 -47 -31 l-28 -26 0 27 c0 22 -5 27 -25
27 l-25 0 0 -170 0 -170 24 0 c24 0 24 0 28 126 3 124 3 126 31 150 36 31 87
32 113 3 16 -18 19 -40 22 -150 4 -129 4 -129 28 -129 l24 0 0 121 c0 120 0
121 29 150 36 36 88 40 117 8 16 -18 19 -40 22 -150 4 -129 4 -129 28 -129
l24 0 0 120 c0 146 -15 195 -67 217 -46 19 -97 8 -133 -28 -29 -29 -29 -29
-40 -8 -7 11 -27 27 -45 35 -35 14 -45 15 -80 7z"/>
<path d="M4570 4195 c-34 -11 -46 -20 -47 -36 -2 -17 2 -20 20 -14 12 4 48 10
79 12 51 4 60 2 83 -21 14 -14 25 -34 25 -44 0 -17 -9 -20 -72 -24 -86 -6
-124 -22 -144 -59 -21 -42 -17 -84 11 -117 44 -52 127 -52 183 0 l22 21 0 -26
c0 -22 5 -27 25 -27 l25 0 0 121 c0 130 -12 177 -55 205 -32 21 -104 26 -155
9z m160 -195 c0 -29 -27 -78 -49 -90 -29 -15 -83 -12 -109 6 -24 17 -29 52 -9
76 17 22 33 26 105 27 56 1 62 -1 62 -19z"/>
<path d="M4961 4193 c-57 -30 -75 -64 -79 -146 -3 -82 13 -126 61 -161 39 -29
106 -28 146 2 l31 23 0 -36 c0 -27 -8 -44 -30 -67 -28 -27 -35 -29 -83 -26
-28 2 -60 8 -70 13 -16 6 -18 4 -15 -16 6 -47 116 -61 188 -24 52 27 60 64 60
264 l0 181 -25 0 c-18 0 -25 -5 -25 -20 l0 -21 -28 21 c-40 30 -90 35 -131 13z
m130 -62 c26 -27 29 -36 29 -94 0 -56 -4 -70 -26 -96 -28 -33 -75 -42 -115
-21 -64 35 -65 192 -2 229 35 20 83 13 114 -18z"/>
<path d="M5376 4200 c-66 -20 -106 -85 -106 -172 0 -129 101 -200 235 -166 41
11 51 17 53 37 3 20 1 22 -15 16 -10 -4 -46 -10 -80 -13 -48 -3 -69 0 -89 13
-23 15 -54 69 -54 95 0 6 47 10 131 10 l130 0 -7 48 c-15 108 -96 162 -198
132z m111 -55 c11 -8 26 -28 31 -45 l11 -30 -105 0 c-57 0 -104 3 -104 6 0 14
24 51 44 66 26 22 94 23 123 3z"/>
<path d="M792 4056 c3 -136 4 -146 27 -170 42 -45 124 -43 171 4 l20 20 0 -25
c0 -20 5 -25 25 -25 l25 0 0 170 0 170 -25 0 -25 0 0 -121 c0 -120 0 -121 -29
-150 -36 -36 -90 -40 -121 -9 -18 18 -20 33 -20 150 l0 130 -26 0 -25 0 3
-144z"/>
<path d="M2130 4030 l0 -170 25 0 25 0 0 170 0 170 -25 0 -25 0 0 -170z"/>
<path d="M2542 4056 c3 -136 4 -146 27 -170 42 -45 124 -43 171 4 l20 20 0
-25 c0 -20 5 -25 25 -25 l25 0 0 170 0 170 -25 0 -25 0 0 -121 c0 -120 0 -121
-29 -150 -36 -36 -90 -40 -121 -9 -18 18 -20 33 -20 150 l0 130 -26 0 -25 0 3
-144z"/>
<path d="M3750 4030 l0 -170 25 0 25 0 0 170 0 170 -25 0 -25 0 0 -170z"/>
<path d="M2629 2844 c-67 -31 -67 -31 -43 -49 25 -19 35 -19 27 1 -5 13 -2 15
18 9 20 -7 22 -6 11 7 -10 13 -9 15 10 13 13 -1 33 8 45 20 19 19 20 21 4 22
-10 1 -42 -10 -72 -23z"/>
<path d="M3118 2796 c-21 -16 -21 -19 -7 -86 10 -48 13 -52 37 -47 14 3 43 -1
65 -9 22 -8 41 -13 42 -12 1 2 5 24 8 50 l7 48 -55 35 c-61 38 -72 41 -97 21z"/>
<path d="M2672 2723 c26 -26 51 -60 57 -74 8 -23 6 -28 -12 -36 -12 -6 -37 -8
-54 -6 -18 3 -45 2 -60 -2 l-28 -7 30 -16 c24 -13 26 -17 13 -20 -10 -2 -18
-7 -18 -11 0 -16 98 -50 160 -55 65 -6 65 -5 38 12 -16 9 -28 20 -28 25 0 4
-4 6 -9 2 -5 -3 -12 4 -16 15 -4 11 -11 18 -16 15 -5 -4 -9 1 -9 9 0 23 42 20
69 -5 18 -17 20 -23 9 -30 -9 -6 -7 -9 9 -9 12 0 25 -4 28 -10 3 -5 12 -10 18
-10 7 1 1 10 -13 21 l-25 21 43 36 c48 42 54 69 17 78 -14 3 -25 9 -25 13 0
10 -45 31 -85 41 -16 4 -55 17 -85 29 l-55 22 47 -48z"/>
<path d="M3412 2620 c-13 -6 -44 -24 -68 -42 -35 -25 -47 -29 -53 -19 -6 9
-11 10 -15 2 -4 -6 -3 -11 3 -11 6 0 17 -13 26 -30 17 -34 19 -44 5 -35 -5 3
-7 0 -4 -9 4 -11 -4 -16 -33 -21 -21 -3 -59 -12 -85 -20 -25 -8 -53 -13 -61
-9 -8 3 -21 -2 -30 -10 -25 -25 -93 -20 -146 10 l-46 27 31 -34 c46 -52 83
-105 100 -144 17 -41 20 -200 3 -211 -7 -4 -9 2 -7 17 2 16 -3 25 -14 27 -10
2 -18 -1 -18 -7 0 -6 6 -11 13 -11 9 0 9 -2 0 -8 -8 -5 -9 -31 -4 -92 8 -93 0
-139 -35 -215 -13 -27 -26 -63 -30 -78 -9 -38 -27 -43 -56 -15 -47 44 -90 78
-100 78 -6 0 -19 11 -30 25 -21 27 -44 34 -34 10 3 -8 1 -15 -4 -15 -6 0 -10
9 -10 20 0 11 -5 20 -11 20 -6 0 -8 9 -4 20 4 13 2 20 -5 18 -7 -2 -17 11 -23
27 -6 17 -29 48 -51 71 -36 36 -58 46 -171 83 -72 22 -135 41 -141 41 -6 0
-17 7 -24 15 -7 8 -32 24 -56 35 -25 10 -43 23 -42 27 2 4 0 8 -3 8 -27 0 -79
81 -79 124 0 51 -17 55 -29 7 -26 -103 -15 -215 44 -454 46 -188 55 -238 55
-315 0 -139 17 -265 44 -323 33 -72 128 -164 212 -205 66 -33 73 -34 174 -32
58 1 139 8 180 16 65 13 85 13 150 1 102 -19 315 -30 323 -17 4 6 -1 29 -10
52 -19 47 -15 55 18 43 15 -5 44 -4 74 2 48 11 50 12 52 48 2 34 -1 37 -38 52
-22 9 -54 16 -72 16 -41 0 -57 16 -51 49 7 31 -23 74 -68 97 -52 27 -86 65
-102 112 -20 57 -20 77 0 96 33 34 61 30 160 -19 52 -26 97 -45 100 -42 3 3
-16 29 -43 59 -26 29 -70 85 -96 123 -27 39 -62 90 -79 114 -28 39 -29 45 -15
53 10 5 17 15 17 23 0 8 12 22 26 31 26 18 74 101 74 129 0 9 16 33 35 53 38
40 43 57 20 69 -18 11 -65 102 -65 128 0 31 -11 65 -19 60 -4 -2 -7 10 -6 28
l2 32 121 3 c100 2 122 5 122 17 0 9 -16 23 -35 32 -54 26 -50 32 45 84 25 14
61 31 80 39 53 21 67 38 47 57 -19 19 -103 27 -135 13z"/>
<path d="M3240 2613 c8 -3 22 -11 30 -17 13 -10 13 -9 1 7 -7 9 -21 17 -30 16
-13 0 -14 -1 -1 -6z"/>
<path d="M2568 2553 c7 -3 16 -2 19 1 4 3 -2 6 -13 5 -11 0 -14 -3 -6 -6z"/>
<path d="M3207 2549 c7 -7 15 -10 18 -7 3 3 -2 9 -12 12 -14 6 -15 5 -6 -5z"/>
<path d="M2578 2483 c7 -3 16 -2 19 1 4 3 -2 6 -13 5 -11 0 -14 -3 -6 -6z"/>
<path d="M3130 2440 c0 -5 5 -10 11 -10 5 0 7 5 4 10 -3 6 -8 10 -11 10 -2 0
-4 -4 -4 -10z"/>
</g>
</svg>
